<svg width="210" height="210" viewBox="0 0 210 210" fill="none" xmlns="http://www.w3.org/2000/svg">
<path d="M111.467 65.5557L111.651 67.2818L112.414 65.7226L139.295 10.7762L124.568 70.1464L124.15 71.8312L125.4 70.6269L169.453 28.1881L135.308 78.941L134.34 80.3812L135.926 79.6771L191.837 54.8646L142.393 90.8786L140.99 91.9006L142.722 91.7816L203.747 87.5882L144.968 104.52L143.3 105L144.968 105.48L203.747 122.412L142.722 118.218L140.99 118.099L142.393 119.121L191.837 155.135L135.926 130.323L134.34 129.619L135.308 131.059L169.453 181.812L125.4 139.373L124.15 138.169L124.568 139.854L139.295 199.224L112.414 144.277L111.651 142.718L111.467 144.444L105 205.271L98.5328 144.444L98.3493 142.718L97.5865 144.277L70.7054 199.224L85.4321 139.854L85.85 138.169L84.5999 139.373L40.5472 181.812L74.6915 131.059L75.6605 129.619L74.0739 130.323L18.1629 155.135L67.6067 119.121L69.0097 118.099L67.278 118.218L6.25252 122.412L65.032 105.48L66.7 105L65.032 104.52L6.25252 87.5882L67.278 91.7816L69.0097 91.9006L67.6067 90.8786L18.1629 54.8646L74.0739 79.6771L75.6605 80.3812L74.6915 78.941L40.5472 28.1881L84.5999 70.6269L85.85 71.8312L85.4321 70.1464L70.7054 10.7763L97.5865 65.7226L98.3493 67.2818L98.5328 65.5557L105 4.72922L111.467 65.5557Z" stroke="#131313"/>
</svg>
